<?xml version="1.0" encoding="utf-8"?>
<!-- Generator: Adobe Illustrator 22.1.0, SVG Export Plug-In . SVG Version: 6.00 Build 0)  -->
<svg version="1.1" id="Layer_1" xmlns="http://www.w3.org/2000/svg" xmlns:xlink="http://www.w3.org/1999/xlink" x="0px" y="0px"
	 viewBox="0 0 650 265" style="enable-background:new 0 0 650 265;" xml:space="preserve">
<style type="text/css">
	.st0{fill:#FFFFFF;stroke:#231F20;stroke-width:2.0814;}
	.st1{fill:none;stroke:#231F20;stroke-width:2.0814;}
	.st2{fill:#231F20;stroke:#231F20;stroke-miterlimit:10;}
	.st3{fill:#FFFFFF;stroke:#231F20;stroke-width:2.3416;}
	.st4{fill:none;stroke:#231F20;stroke-width:2.0814;stroke-linecap:square;}
	.st5{fill:#488CCB;stroke:#231F20;stroke-width:2.0814;}
</style>
<title>Group 32</title>
<desc>Created with Sketch.</desc>
<path id="Case" class="st0" d="M126,41.8c0-4,3.3-7.3,7.3-7.3h253.6c4,0,7.3,3.3,7.3,7.3v173.5c0,4-3.3,7.3-7.3,7.3H133.3
	c-4,0-7.3-3.3-7.3-7.3V41.8z"/>
<path id="Case_1_" class="st0" d="M142.4,53.7c0-1.7,1.4-3.1,3.1-3.1h228.8c1.7,0,3.1,1.4,3.1,3.1V183c0,1.7-1.4,3.1-3.1,3.1H145.5
	c-1.7,0-3.1-1.4-3.1-3.1V53.7z"/>
<path id="Case_2_" class="st0" d="M241,224h38.5l2.6,33.6h-43.6L241,224z"/>
<path id="Keyboard" class="st0" d="M222.3,263.4v-3.5c0-2.1,1.7-3.8,3.8-3.8h68.2c2.1,0,3.8,1.7,3.8,3.8v3.5c0,0.1-0.1,0.3-0.3,0.3
	h-75.2C222.5,263.7,222.3,263.6,222.3,263.4z"/>
<ellipse id="Oval-6" transform="matrix(0.4641 -0.8858 0.8858 0.4641 -42.8443 340.7705)" class="st1" cx="260.2" cy="205.8" rx="4.8" ry="4.8"/>
<path id="Case_3_" class="st0" d="M107.5,162.7h39.1c3.4,0,6.2,2.8,6.2,6.2v88.5c0,3.4-2.8,6.2-6.2,6.2h-39.1
	c-3.4,0-6.2-2.8-6.2-6.2V169C101.3,165.5,104.1,162.7,107.5,162.7z"/>
<path id="Case_4_" class="st0" d="M101.3,173.9h51.5v74.7h-51.5V173.9z"/>
<path id="Rectangle-11" class="st2" d="M115.9,167.2h22.7c0.6,0,1,0.5,1,1l0,0c0,0.6-0.5,1-1,1h-22.7c-0.6,0-1-0.5-1-1l0,0
	C114.8,167.6,115.3,167.2,115.9,167.2z"/>
<path id="Rectangle-11_1_" class="st2" d="M127.2,253L127.2,253c1.6,0,3,1.3,3,3l0,0c0,1.6-1.3,3-3,3l0,0c-1.6,0-3-1.3-3-3l0,0
	C124.2,254.4,125.5,253,127.2,253z"/>
<ellipse id="Oval-6_1_" class="st1" cx="115.9" cy="211.1" rx="3.9" ry="3.9"/>
<path id="Rectangle-11_2_" class="st2" d="M126,204.4h16.1c0.6,0,1,0.5,1,1l0,0c0,0.6-0.5,1-1,1H126c-0.6,0-1-0.5-1-1l0,0
	C125,204.8,125.4,204.4,126,204.4z"/>
<path id="Rectangle-11_3_" class="st2" d="M126,210.1h10.9c0.6,0,1,0.5,1,1l0,0c0,0.6-0.5,1-1,1H126c-0.6,0-1-0.5-1-1l0,0
	C125,210.6,125.4,210.1,126,210.1z"/>
<path id="Rectangle-11_4_" class="st2" d="M126,215.8h5.7c0.6,0,1,0.5,1,1l0,0c0,0.6-0.5,1-1,1H126c-0.6,0-1-0.5-1-1l0,0
	C125,216.3,125.4,215.8,126,215.8z"/>
<ellipse id="Oval-7" class="st0" cx="74.8" cy="171.7" rx="40" ry="39.9"/>
<path id="Case_5_" class="st0" d="M325.9,123.5h180.2c3.4,0,6.2,2.8,6.2,6.2v116.8c0,3.4-2.8,6.2-6.2,6.2H325.9
	c-3.4,0-6.2-2.8-6.2-6.2V129.7C319.7,126.3,322.5,123.5,325.9,123.5z"/>
<path id="Keyboard_1_" class="st0" d="M306.4,253v5.2c0,3,2.4,5.5,5.5,5.5h208.3c3,0,5.5-2.4,5.5-5.5V253c0-0.1-0.1-0.3-0.3-0.3
	H306.7C306.5,252.8,306.4,252.9,306.4,253z"/>
<path id="Notch" class="st0" d="M430.4,252.9h-29.2c1.2,3.1,4.1,5.2,7.5,5.2h14.1C426.3,258.1,429.3,256,430.4,252.9z"/>
<path id="Screen" class="st0" d="M330.4,135.7h171.2c1.1,0,2.1,0.9,2.1,2.1v100.9c0,1.1-0.9,2.1-2.1,2.1H330.4
	c-1.1,0-2.1-0.9-2.1-2.1V137.8C328.3,136.6,329.2,135.7,330.4,135.7z"/>
<ellipse id="Oval-3" class="st2" cx="254.4" cy="53" rx="1.3" ry="1.3"/>
<path id="Case_6_" class="st0" d="M179.9,15h120.3v115.3c0,4-3.3,7.3-7.3,7.3H187.2c-4,0-7.3-3.3-7.3-7.3V15z"/>
<path id="Case_7_" class="st0" d="M179.9,9.2c0-4,3.3-7.3,7.3-7.3h105.7c4,0,7.3,3.3,7.3,7.3V17H179.9V9.2z"/>
<ellipse id="Oval-5" class="st2" cx="191.1" cy="9.5" rx="2.3" ry="2.3"/>
<ellipse id="Oval-5_1_" class="st2" cx="198.9" cy="9.5" rx="2.3" ry="2.3"/>
<ellipse id="Oval-5_2_" class="st2" cx="206.7" cy="9.5" rx="2.3" ry="2.3"/>
<path id="Rectangle-11_5_" class="st2" d="M195.5,90.9h2.6c0.6,0,1,0.5,1,1l0,0c0,0.6-0.5,1-1,1h-2.6c-0.6,0-1-0.5-1-1l0,0
	C194.5,91.4,194.9,90.9,195.5,90.9z"/>
<path id="Rectangle-11_6_" class="st2" d="M195.5,38.9h2.6c0.6,0,1,0.5,1,1l0,0c0,0.6-0.5,1-1,1h-2.6c-0.6,0-1-0.5-1-1l0,0
	C194.5,39.4,194.9,38.9,195.5,38.9z"/>
<path id="Rectangle-11_7_" class="st2" d="M203.3,38.9h7c0.6,0,1,0.5,1,1c0,0.6-0.5,1-1,1h-7c-0.6,0-1-0.5-1-1
	S202.8,38.9,203.3,38.9z"/>
<path id="Rectangle-11_8_" class="st2" d="M215,38.9h7c0.6,0,1,0.5,1,1c0,0.6-0.5,1-1,1h-7c-0.6,0-1-0.5-1-1S214.5,38.9,215,38.9z"
	/>
<path id="Rectangle-11_9_" class="st2" d="M226.8,38.9h13c0.6,0,1,0.5,1,1c0,0.6-0.5,1-1,1h-13c-0.6,0-1-0.5-1-1
	C225.7,39.4,226.2,38.9,226.8,38.9z"/>
<path id="Rectangle-11_10_" class="st2" d="M244.5,38.9h19.3c0.6,0,1,0.5,1,1c0,0.6-0.5,1-1,1h-19.3c-0.6,0-1-0.5-1-1
	C243.4,39.4,243.9,38.9,244.5,38.9z"/>
<path id="Rectangle-11_11_" class="st2" d="M195.5,49.3h2.6c0.6,0,1,0.5,1,1l0,0c0,0.6-0.5,1-1,1h-2.6c-0.6,0-1-0.5-1-1l0,0
	C194.5,49.8,194.9,49.3,195.5,49.3z"/>
<path id="Rectangle-11_12_" class="st2" d="M195.5,59.7h2.6c0.6,0,1,0.5,1,1l0,0c0,0.6-0.5,1-1,1h-2.6c-0.6,0-1-0.5-1-1l0,0
	C194.5,60.2,194.9,59.7,195.5,59.7z"/>
<path id="Rectangle-11_13_" class="st2" d="M195.5,70.1h2.6c0.6,0,1,0.5,1,1l0,0c0,0.6-0.5,1-1,1h-2.6c-0.6,0-1-0.5-1-1l0,0
	C194.5,70.6,194.9,70.1,195.5,70.1z"/>
<path id="Rectangle-11_14_" class="st2" d="M195.5,80.5h2.6c0.6,0,1,0.5,1,1l0,0c0,0.6-0.5,1-1,1h-2.6c-0.6,0-1-0.5-1-1l0,0
	C194.5,81,194.9,80.5,195.5,80.5z"/>
<path id="Rectangle-11_15_" class="st2" d="M195.5,101.3h2.6c0.6,0,1,0.5,1,1l0,0c0,0.6-0.5,1-1,1h-2.6c-0.6,0-1-0.5-1-1l0,0
	C194.5,101.8,194.9,101.3,195.5,101.3z"/>
<path id="Rectangle-11_16_" class="st2" d="M195.5,111.8h2.6c0.6,0,1,0.5,1,1l0,0c0,0.6-0.5,1-1,1h-2.6c-0.6,0-1-0.5-1-1l0,0
	C194.5,112.2,194.9,111.8,195.5,111.8z"/>
<path id="Rectangle-11_17_" class="st2" d="M203.3,49.3h16.1c0.6,0,1,0.5,1,1l0,0c0,0.6-0.5,1-1,1h-16.1c-0.6,0-1-0.5-1-1l0,0
	C202.3,49.8,202.8,49.3,203.3,49.3z"/>
<path id="Rectangle-11_18_" class="st2" d="M224.2,49.3h29.2c0.6,0,1,0.5,1,1l0,0c0,0.6-0.5,1-1,1h-29.2c-0.6,0-1-0.5-1-1l0,0
	C223.1,49.8,223.6,49.3,224.2,49.3z"/>
<path id="Rectangle-11_19_" class="st2" d="M258,49.3h10.9c0.6,0,1,0.5,1,1l0,0c0,0.6-0.5,1-1,1H258c-0.6,0-1-0.5-1-1l0,0
	C257,49.8,257.4,49.3,258,49.3z"/>
<path id="Rectangle-11_20_" class="st2" d="M203.3,59.7h10.9c0.6,0,1,0.5,1,1l0,0c0,0.6-0.5,1-1,1h-10.9c-0.6,0-1-0.5-1-1l0,0
	C202.3,60.2,202.8,59.7,203.3,59.7z"/>
<path id="Rectangle-11_21_" class="st2" d="M218.9,59.7h10.9c0.6,0,1,0.5,1,1l0,0c0,0.6-0.5,1-1,1h-10.9c-0.6,0-1-0.5-1-1l0,0
	C217.9,60.2,218.4,59.7,218.9,59.7z"/>
<path id="Rectangle-11_22_" class="st2" d="M234.6,59.7h5.7c0.6,0,1,0.5,1,1l0,0c0,0.6-0.5,1-1,1h-5.7c-0.6,0-1-0.5-1-1l0,0
	C233.5,60.2,234,59.7,234.6,59.7z"/>
<path id="Rectangle-11_23_" class="st2" d="M203.3,70.1h24c0.6,0,1,0.5,1,1l0,0c0,0.6-0.5,1-1,1h-24c-0.6,0-1-0.5-1-1l0,0
	C202.3,70.6,202.8,70.1,203.3,70.1z"/>
<path id="Rectangle-11_24_" class="st2" d="M232,70.1h16.1c0.6,0,1,0.5,1,1l0,0c0,0.6-0.5,1-1,1H232c-0.6,0-1-0.5-1-1l0,0
	C230.9,70.6,231.4,70.1,232,70.1z"/>
<path id="Rectangle-11_25_" class="st2" d="M203.3,80.5h24c0.6,0,1,0.5,1,1l0,0c0,0.6-0.5,1-1,1h-24c-0.6,0-1-0.5-1-1l0,0
	C202.3,81,202.8,80.5,203.3,80.5z"/>
<path id="Rectangle-11_26_" class="st2" d="M232,80.5h31.8c0.6,0,1,0.5,1,1l0,0c0,0.6-0.5,1-1,1H232c-0.6,0-1-0.5-1-1l0,0
	C230.9,81,231.4,80.5,232,80.5z"/>
<path id="Rectangle-11_27_" class="st2" d="M203.3,90.9h16.1c0.6,0,1,0.5,1,1l0,0c0,0.6-0.5,1-1,1h-16.1c-0.6,0-1-0.5-1-1l0,0
	C202.3,91.4,202.8,90.9,203.3,90.9z"/>
<path id="Rectangle-11_28_" class="st2" d="M224.2,90.9h16.1c0.6,0,1,0.5,1,1l0,0c0,0.6-0.5,1-1,1h-16.1c-0.6,0-1-0.5-1-1l0,0
	C223.1,91.4,223.6,90.9,224.2,90.9z"/>
<path id="Rectangle-11_29_" class="st2" d="M245,90.9h8.3c0.6,0,1,0.5,1,1l0,0c0,0.6-0.5,1-1,1H245c-0.6,0-1-0.5-1-1l0,0
	C243.9,91.4,244.4,90.9,245,90.9z"/>
<path id="Rectangle-11_30_" class="st2" d="M203.3,101.3h31.8c0.6,0,1,0.5,1,1l0,0c0,0.6-0.5,1-1,1h-31.8c-0.6,0-1-0.5-1-1l0,0
	C202.3,101.8,202.8,101.3,203.3,101.3z"/>
<path id="Rectangle-11_31_" class="st2" d="M203.3,111.8h13.5c0.6,0,1,0.5,1,1l0,0c0,0.6-0.5,1-1,1h-13.5c-0.6,0-1-0.5-1-1l0,0
	C202.3,112.2,202.8,111.8,203.3,111.8z"/>
<path id="Case_8_" class="st0" d="M415,96.7h142.7v101.5c0,4-3.3,7.3-7.3,7.3H422.3c-4,0-7.3-3.3-7.3-7.3V96.7z"/>
<path id="Case_9_" class="st0" d="M415,90.9c0-4,3.3-7.3,7.3-7.3h128.1c4,0,7.3,3.3,7.3,7.3v7.8H415V90.9z"/>
<ellipse id="Oval-5_3_" class="st2" cx="426.2" cy="91.2" rx="2.3" ry="2.3"/>
<ellipse id="Oval-5_4_" class="st2" cx="434" cy="91.2" rx="2.3" ry="2.3"/>
<ellipse id="Oval-5_5_" class="st2" cx="441.8" cy="91.2" rx="2.3" ry="2.3"/>
<ellipse id="Oval-6_2_" class="st3" cx="503.2" cy="151" rx="26" ry="26"/>
<path id="Rectangle-12" class="st0" d="M500.4,121.9v6.2h6.2v-6.2C506.6,121.9,500.4,121.9,500.4,121.9z"/>
<path id="Rectangle-12_1_" class="st0" d="M500.1,173.9v6.2h6.2v-6.2H500.1z"/>
<path id="Rectangle-12_2_" class="st0" d="M474.1,148.2v6.2h6.2v-6.2H474.1z"/>
<path id="Rectangle-12_3_" class="st0" d="M525.9,148.2v6.2h6.2v-6.2H525.9z"/>
<line id="Line" class="st4" x1="529.3" y1="127.6" x2="529.3" y2="147.1"/>
<line id="Line_1_" class="st4" x1="529.3" y1="154.9" x2="529.3" y2="174.5"/>
<ellipse id="Oval-5_6_" class="st2" cx="529.3" cy="126.8" rx="3.1" ry="3.1"/>
<ellipse id="Oval-5_7_" class="st2" cx="529.3" cy="176.3" rx="3.1" ry="3.1"/>
<g id="Group-60" transform="translate(439.463238, 115.519364)">
	<path id="Rectangle-15" class="st0" d="M4.2,4h9.9c1.7,0,3.1,1.4,3.1,3.1V17c0,1.7-1.4,3.1-3.1,3.1H4.2C2.4,20.2,1,18.8,1,17V7.2
		C1,5.4,2.4,4,4.2,4z"/>
	<path id="Rectangle-15_1_" class="st0" d="M4.2,27.5h9.9c1.7,0,3.1,1.4,3.1,3.1v9.9c0,1.7-1.4,3.1-3.1,3.1H4.2
		c-1.7,0-3.1-1.4-3.1-3.1v-9.9C1,28.9,2.4,27.5,4.2,27.5z"/>
	<path id="Rectangle-15_2_" class="st0" d="M4.2,50.9h9.9c1.7,0,3.1,1.4,3.1,3.1v9.9c0,1.7-1.4,3.1-3.1,3.1H4.2
		C2.4,67,1,65.6,1,63.9V54C1,52.3,2.4,50.9,4.2,50.9z"/>
</g>
<ellipse id="Oval-8" class="st0" cx="632.4" cy="239" rx="15.6" ry="15.6"/>
<ellipse id="Oval-8_1_" class="st5" cx="632.4" cy="239" rx="9.1" ry="9.1"/>
<ellipse id="Oval-8_2_" class="st5" cx="611.6" cy="215.3" rx="5.2" ry="5.2"/>
<path id="Rectangle-16" class="st0" d="M588.6,214c-0.6,0-1,0.5-1,1v43.7c0,2.9,2.3,5.2,5.2,5.2h35.9c2.9,0,5.2-2.3,5.2-5.2V215
	c0-0.6-0.5-1-1-1H588.6z"/>
<path id="Rectangle-16_1_" class="st0" d="M612.9,228.1h7.3c1.7,0,3.1,1.4,3.1,3.1v10.4c0,1.7-1.4,3.1-3.1,3.1h-7.3
	c-1.7,0-3.1-1.4-3.1-3.1v-10.4C609.7,229.5,611.1,228.1,612.9,228.1z"/>
<line id="Line-2" class="st4" x1="616.4" y1="214.4" x2="616.4" y2="226.2"/>
<path id="Oval-8_3_" class="st0" d="M557.9,263.7c8.6,0,15.6,0,15.6,0c0-8.6-7-15.6-15.6-15.6s-15.6,7-15.6,15.6
	C542.3,263.7,549.3,263.7,557.9,263.7z"/>
<path id="Rectangle-11_32_" class="st2" d="M557.9,247.6L557.9,247.6c0.6,0,1,0.5,1,1v1.3c0,0.6-0.5,1-1,1l0,0c-0.6,0-1-0.5-1-1
	v-1.3C556.9,248,557.3,247.6,557.9,247.6z"/>
<path id="Rectangle-17" class="st0" d="M16.4,233C7.9,233,1,239.9,1,248.3c0,8.5,6.9,15.4,15.4,15.4h63c0.9,0,1.6-0.7,1.6-1.6v-2.4
	c0-1.1-0.8-2-1.9-2.1c-7.2-0.5-11-3.7-11-9.3s3.8-8.8,11-9.3c1.1-0.1,1.9-1,1.9-2.1v-2.4c0-0.9-0.7-1.6-1.6-1.6h-63
	C16.4,232.9,16.4,233,16.4,233z"/>
<path id="Rectangle-19" class="st1" d="M80.2,258.3c0,0.3-0.2,0.5-0.5,0.5l0,0h-7.4H16.1c-5.8,0-10.4-4.7-10.4-10.4
	S10.4,238,16.1,238h56.2h7.4l0,0c0.3,0,0.5,0.2,0.5,0.5"/>
<path id="Rectangle-18" class="st2" d="M15.1,243.9h52.6c0.6,0,1,0.5,1,1l0,0c0,0.6-0.5,1-1,1H15.1c-0.6,0-1-0.5-1-1l0,0
	C14.1,244.4,14.5,243.9,15.1,243.9z"/>
<path id="Rectangle-18_1_" class="st2" d="M15.1,250.4h52.6c0.6,0,1,0.5,1,1l0,0c0,0.6-0.5,1-1,1H15.1c-0.6,0-1-0.5-1-1l0,0
	C14.1,250.9,14.5,250.4,15.1,250.4z"/>
<path id="Shape" class="st2" d="M65.1,181.1c-1.3-1.1-2.6-2.3-3.8-3.4c-2-1.8-4.1-3.6-6.1-5.4c-0.5-0.4-0.9-0.8-1.4-1.2
	c0,0.5,0,1.1,0,1.6c1.3-1.1,2.6-2.3,3.8-3.4c2-1.8,4.1-3.6,6.1-5.4c0.5-0.4,0.9-0.8,1.4-1.2s0.4-1.2,0-1.6c-0.5-0.4-1.2-0.4-1.7,0
	c-1.3,1.1-2.6,2.3-3.8,3.4c-2,1.8-4.1,3.6-6.1,5.4c-0.5,0.4-0.9,0.8-1.4,1.2c-0.4,0.4-0.4,1.2,0,1.6c1.3,1.1,2.6,2.3,3.8,3.4
	c2,1.8,4.1,3.6,6.1,5.4c0.5,0.4,0.9,0.8,1.4,1.2s1.2,0.5,1.7,0C65.5,182.3,65.6,181.5,65.1,181.1L65.1,181.1z"/>
<path id="Shape_1_" class="st2" d="M84.6,162.6c1.3,1.1,2.6,2.3,3.8,3.4c2,1.8,4.1,3.6,6.1,5.4c0.5,0.4,0.9,0.8,1.4,1.2
	c0-0.5,0-1.1,0-1.6c-1.3,1.1-2.6,2.3-3.8,3.4c-2,1.8-4.1,3.6-6.1,5.4c-0.5,0.4-0.9,0.8-1.4,1.2s-0.4,1.2,0,1.6
	c0.5,0.4,1.2,0.4,1.7,0c1.3-1.1,2.6-2.3,3.8-3.4c2-1.8,4.1-3.6,6.1-5.4c0.5-0.4,0.9-0.8,1.4-1.2c0.4-0.4,0.4-1.2,0-1.6
	c-1.3-1.1-2.6-2.3-3.8-3.4c-2-1.8-4.1-3.6-6.1-5.4c-0.5-0.4-0.9-0.8-1.4-1.2s-1.2-0.5-1.7,0C84.2,161.4,84.1,162.1,84.6,162.6
	L84.6,162.6z"/>
<path id="Shape_2_" class="st2" d="M70.7,187.9c0.4-1,0.7-2.1,1-3.1c0.8-2.5,1.7-5,2.5-7.5c1-3,2-6,3-9.1c0.9-2.6,1.7-5.2,2.6-7.8
	c0.4-1.3,0.9-2.5,1.3-3.8c0,0,0,0,0-0.1c0.2-0.6-0.2-1.3-0.8-1.4c-0.6-0.1-1.2,0.2-1.4,0.8c-0.4,1-0.7,2.1-1,3.1
	c-0.8,2.5-1.7,5-2.5,7.5c-1,3-2,6-3,9.1c-0.9,2.6-1.7,5.2-2.6,7.8c-0.4,1.3-0.9,2.5-1.3,3.8c0,0,0,0,0,0.1c-0.2,0.6,0.2,1.3,0.8,1.4
	C69.9,188.8,70.5,188.5,70.7,187.9L70.7,187.9z"/>
</svg>
